<svg width="80" height="27" viewBox="0 0 80 27" fill="none" xmlns="http://www.w3.org/2000/svg">
<path d="M4.17654 5.44602C4.17654 5.00978 4.085 4.87092 4.085 4.71046C4.085 4.47942 4.36115 4.31858 4.68154 4.31858C5.43962 4.31858 5.96731 4.77912 5.96731 5.33146V13.8716C5.96731 16.0805 6.70231 16.9554 8.05577 16.9554C9.34154 16.9554 10.3058 15.9429 10.3058 14.6075C10.3058 12.5362 8.72231 11.9152 7.27615 11.9152C6.86308 11.9152 6.47231 10.188 7.16038 10.188C8.24038 10.188 10.8792 9.47519 10.8792 6.13761C10.8792 4.38762 9.755 2.59328 6.93154 2.59328C3.23577 2.59328 1.74423 5.03292 1.74423 7.84054C1.74423 9.86592 2.57038 10.5803 2.61654 10.6489C2.86962 10.5799 2.96115 10.7407 2.96115 10.9714C2.96115 11.386 2.34192 12.905 1.67538 12.3985C1.30846 12.0529 0 10.6717 0 7.97939C0 3.67482 2.82346 0.866821 6.90846 0.866821C10.3742 0.866821 12.6465 2.82316 12.6465 6.09209C12.6465 8.60078 11.3608 10.1429 9.68615 11.0404C11.0165 11.4323 12.0962 12.5825 12.0962 14.562C12.0962 16.8639 10.3515 18.5437 8.07885 18.5437C5.07269 18.5437 4.17692 16.6333 4.17692 13.8017V5.44602H4.17654Z" fill="white"/>
<path d="M16.1769 8.48547C17.4629 8.48547 18.2422 9.42918 18.2423 10.8087C18.2423 12.5128 17.0727 14.5389 14.8458 15.2062C15.1678 15.989 15.7875 16.6329 16.9816 16.6329C18.7704 16.6327 19.5052 15.1368 19.7814 13.7325C19.9875 12.6971 21.273 13.1571 21.1808 13.963C21.0204 15.3674 20.1019 18.1514 16.7286 18.1515C14.6402 18.1515 12.6662 16.4722 12.6661 13.5948C12.6661 10.6721 14.4105 8.48581 16.1769 8.48547ZM15.9718 10.0275C14.8461 10.0275 14.5022 12.5588 14.548 13.5255C14.548 13.6636 14.5714 13.8013 14.5714 13.9406C15.7182 13.4113 16.4532 12.2133 16.4532 10.8322C16.4532 10.3263 16.2693 10.0277 15.9718 10.0275Z" fill="white"/>
<path d="M27.8154 14.147C27.9069 13.6637 28.1373 13.4573 28.3662 13.4573C28.7339 13.4573 29.17 13.9634 29.17 14.4008C29.17 14.4239 29.17 14.4698 29.1469 14.5616C28.7566 16.0806 27.8385 18.1519 25.8646 18.1519C25.0608 18.1519 24.4416 17.7615 24.097 17.2084C23.6389 17.7376 22.9954 18.1519 22.1231 18.1519C20.3335 18.1519 19.3923 16.6329 19.3923 14.6766C19.3923 10.8322 22.0543 8.48547 24.8546 8.48547C25.4739 8.48547 25.91 8.85267 25.91 9.45246C25.91 9.8428 25.8412 9.98166 25.6123 9.98166C25.4054 9.98166 25.1762 9.93576 24.9462 9.93576C23.2027 9.93576 21.1589 11.4319 21.1589 14.7456C21.1589 15.9429 21.6635 16.6333 22.4673 16.6333C23.0866 16.6333 23.5004 16.0806 23.7531 15.4368V11.8925C23.7531 11.4551 23.6616 11.3162 23.6616 11.1554C23.6616 10.9255 23.9366 10.7635 24.2581 10.7635C25.015 10.7635 25.4973 11.224 25.4973 11.7764V15.5745C25.4973 16.0806 25.7273 16.6333 26.2777 16.6333C27.1958 16.6329 27.6093 15.1599 27.8154 14.147Z" fill="white"/>
<path d="M32.3392 16.518C31.7881 17.4846 31.0531 18.1746 30.0435 18.1746C28.5058 18.1746 27.6108 16.8636 27.6108 14.8613C27.6108 12.4213 28.4369 9.68157 28.4369 9.68157C28.5973 9.29007 28.4369 8.82952 29.6531 8.82952C30.7773 8.82952 30.1119 9.75061 30.0204 10.0962C29.6073 11.7988 29.3554 12.8113 29.3554 14.7452C29.3554 15.9888 29.7446 16.6557 30.4108 16.6557C31.3292 16.6557 32.0173 15.1595 32.2935 13.5484V9.84241C32.2935 9.17551 32.0631 9.12922 32.0631 8.96838C32.0631 8.80638 32.4762 8.71497 32.7981 8.71497C33.555 8.71497 34.0369 9.17512 34.0369 9.72747V15.5737C34.0369 15.7805 34.0369 16.6325 34.6335 16.6325C35.5519 16.6325 35.965 15.1595 36.1723 14.1466C36.2639 13.6633 36.4927 13.4569 36.7231 13.4569C37.0892 13.4569 37.5258 13.963 37.5258 14.4004C37.5258 14.4235 37.5258 14.4694 37.5027 14.5612C37.0892 16.0802 36.1954 18.1515 34.2215 18.1515C33.1873 18.1519 32.4992 17.4387 32.3392 16.518Z" fill="white"/>
<path d="M36.2661 6.75858V2.86904C36.2661 2.20214 36.0357 2.15585 36.0357 1.99385C36.0357 1.83301 36.4492 1.74121 36.7707 1.74121C37.5277 1.74121 38.0096 2.20175 38.0096 2.7541V6.78172C39.41 6.78172 41.0165 6.75858 42.5777 6.68993C43.22 5.99988 43.013 8.20887 42.4165 8.23163C40.58 8.27753 39.2269 8.27753 38.0096 8.27753V15.5741C38.0096 16.3112 38.3084 16.6329 38.7904 16.6329C39.7088 16.6329 40.1219 15.1598 40.3284 14.1469C40.42 13.6636 40.65 13.4573 40.8792 13.4573C41.2465 13.4573 41.683 13.9633 41.683 14.4007C41.683 14.4239 41.683 14.4698 41.66 14.5616C41.2692 16.0805 40.3515 18.1518 38.3773 18.1518C37.1373 18.1518 36.2661 17.4163 36.2661 15.5972V8.27753C35.2565 8.27753 34.6815 8.23163 34.6815 8.23163C33.9477 8.23163 33.5346 6.68993 34.1996 6.68993C34.1992 6.68993 35.0261 6.73583 36.2661 6.75858Z" fill="white"/>
<path d="M45.3096 8.71533C46.0663 8.71549 46.5479 9.17578 46.5479 9.72803V17.8071C47.3744 16.8861 48.1086 15.7349 48.5674 14.147C48.7062 13.6638 48.8895 13.4577 49.1182 13.4575C49.4859 13.4575 49.9219 13.9635 49.9219 14.4009C49.9219 14.4243 49.9224 14.5384 49.8995 14.6304C49.1187 17.301 47.7883 18.658 46.5479 19.7407V23.7231C46.5478 26.1397 45.3323 26.9907 44.1612 26.9907C42.8766 26.9907 41.9581 25.8172 41.9581 24.3442C41.9581 22.0197 43.2896 20.8455 44.8038 19.5103V16.5874C44.2519 17.5079 43.5415 18.1752 42.5547 18.1753C41.0171 18.1753 40.1212 16.864 40.1212 14.8618C40.1212 12.4311 40.9421 9.70281 40.9483 9.68213C41.1087 9.29063 40.9484 8.82959 42.1641 8.82959C43.2892 8.82974 42.6228 9.75039 42.5313 10.0962C42.1178 11.7987 41.8663 12.8116 41.8663 14.7456C41.8663 15.9891 42.2558 16.6558 42.9219 16.6558C43.8404 16.6557 44.528 15.1595 44.8038 13.5483V9.84326C44.8038 9.40557 44.712 9.26773 44.712 9.10693C44.712 8.87589 44.9881 8.71533 45.3096 8.71533ZM44.8047 21.2603C44.0698 22.0193 43.5645 22.8937 43.5645 24.2749C43.5646 24.988 43.7951 25.5396 44.1612 25.5396C44.8959 25.5399 44.8048 24.161 44.8047 23.7231V21.2603Z" fill="white"/>
<path d="M51.9046 5.44602C51.9046 5.00978 51.8131 4.87092 51.8131 4.71046C51.8131 4.47942 52.0892 4.31858 52.4096 4.31858C53.1677 4.31858 53.6954 4.77912 53.6954 5.33146V13.8716C53.6954 16.0805 54.4304 16.9554 55.7838 16.9554C57.0696 16.9554 58.0338 15.9429 58.0338 14.6075C58.0338 12.5362 56.4504 11.9152 55.0042 11.9152C54.5911 11.9152 54.2004 10.188 54.8885 10.188C55.9685 10.188 58.6073 9.47519 58.6073 6.13761C58.6073 4.38762 57.4831 2.59328 54.6596 2.59328C50.9638 2.59328 49.4723 5.03292 49.4723 7.84054C49.4723 9.86592 50.2985 10.5803 50.3446 10.6489C50.5977 10.5799 50.6892 10.7407 50.6892 10.9714C50.6892 11.386 50.07 12.905 49.4035 12.3985C49.0369 12.0529 47.7285 10.6717 47.7285 7.97939C47.7285 3.67482 50.5519 0.866821 54.6369 0.866821C58.1027 0.866821 60.375 2.82316 60.375 6.09209C60.375 8.60078 59.0892 10.1429 57.4146 11.0404C58.745 11.4323 59.8246 12.5825 59.8246 14.562C59.8246 16.8639 58.08 18.5437 55.8073 18.5437C52.8011 18.5437 51.9054 16.6333 51.9054 13.8017V5.44602H51.9046Z" fill="white"/>
<path d="M62.7357 8.43921C63.332 8.43956 63.7908 9.65858 63.1946 10.0505C62.8273 10.6029 62.139 11.4547 62.139 13.7322C62.139 15.6654 62.8955 16.6323 63.7903 16.6326C64.4327 16.6326 64.8464 16.2879 65.1448 15.7576C64.0665 14.8376 63.4915 13.3178 63.4915 11.6609C63.4916 10.2108 64.1123 8.96869 65.3509 8.96851C66.4294 8.96851 67.3021 10.603 67.3021 12.8347C67.302 13.6865 67.2101 14.5382 66.9798 15.321C67.1412 15.3669 67.2786 15.3669 67.4388 15.3669C68.4253 15.3669 68.9544 14.6067 69.0921 13.7087C69.1852 13.1803 70.6994 13.089 70.4007 14.3777C70.1261 15.6199 69.1848 16.6558 67.6243 16.656C67.2113 16.656 66.8432 16.6098 66.4993 16.4949C65.9248 17.484 65.0536 18.151 63.7454 18.1511C61.4273 18.1511 60.3939 16.1716 60.3939 13.8708C60.394 10.4876 62.2307 8.43921 62.7357 8.43921ZM65.0999 10.488C64.8472 10.488 64.7093 10.8557 64.7093 11.5701C64.7094 12.6055 65.0544 13.5715 65.5823 14.2615C65.6277 13.8946 65.6507 13.5488 65.6507 13.2039C65.6507 11.6389 65.582 10.4885 65.0999 10.488Z" fill="white"/>
<path d="M69.0258 14.0324C69.2558 13.1803 69.6235 10.7631 69.6235 9.58972C69.6235 8.78397 70.0139 8.48542 70.9769 8.48542C71.3443 8.48542 71.895 8.62312 72.1939 9.10642C72.7446 10.0044 73.2035 10.9019 73.7769 12.1212C74.5577 10.9247 75.1773 9.81922 75.5677 9.08328C75.7735 8.66902 75.9581 8.46228 76.21 8.46228C76.6689 8.46228 77.1739 9.12918 77.1739 9.65877C77.1739 9.79647 77.1508 9.91257 77.0823 10.0044L74.4893 13.7092C75.3608 15.5737 75.9812 16.7239 76.8296 16.7239C77.7477 16.7239 78.1381 15.1591 78.3454 14.1462C78.4366 13.6629 78.6658 13.4565 78.8962 13.4565C79.2623 13.4565 79.6985 13.9626 79.6985 14.4C79.6985 14.4231 79.6985 14.469 79.6754 14.5608C79.285 16.0798 78.4823 18.151 76.6231 18.151C75.2458 18.151 74.3962 17.3696 73.4096 15.274L71.8719 17.4614C71.5516 17.9674 71.2527 18.151 70.8393 18.151C70.3116 18.151 69.6462 17.8297 69.6462 17.3923C69.6462 17.0926 69.8977 17.2303 70.6327 16.3795C71.3439 15.5506 72.0558 14.6299 72.6981 13.7088C72.2162 12.6045 71.6885 11.5684 71.0693 10.51C71.0235 11.5225 70.6558 13.5711 70.3112 14.6758C70.0135 15.6431 68.8196 14.8154 69.0258 14.0324Z" fill="white"/>
<path d="M29.8348 0.170987C32.3982 -0.476237 33.13 0.916541 33.1444 0.944425C33.7963 2.19987 33.3343 2.94127 32.9393 3.3536C32.5451 3.7667 31.6351 4.71298 29.2167 4.71298H25.6903L28.9257 6.80673C28.9725 6.83683 28.9851 6.9013 28.954 6.94833L28.1932 8.08407C28.1622 8.13103 28.0985 8.14338 28.0516 8.11239L24.7743 5.90634L24.4481 4.712V6.01864C24.4481 6.07689 24.4017 6.12314 24.3456 6.12314H22.8026C22.7445 6.12314 22.6991 6.0765 22.6991 6.01864V4.712L22.3749 5.90634L19.0975 8.11239C19.0506 8.14364 18.9867 8.13113 18.954 8.08407L18.1932 6.94833C18.1618 6.90128 18.1755 6.8368 18.2235 6.80673L21.4579 4.71298H17.9305C15.5121 4.71298 14.6017 3.76671 14.2079 3.3536C13.8141 2.94169 13.3505 2.20077 14.0018 0.945402C14.0018 0.945402 14.7226 -0.481822 17.3134 0.171964C19.2317 0.65603 21.8256 2.06551 22.703 2.55966C22.7115 2.5126 22.7518 2.47567 22.8026 2.47567H24.3456C24.3948 2.47567 24.4356 2.5126 24.4452 2.55966C25.321 2.06551 27.9153 0.655428 29.8348 0.170987ZM16.6434 0.532316C15.3749 0.532484 14.9296 1.37509 14.9296 1.37509C14.6028 1.88598 14.585 2.4945 14.5946 2.75692C14.1788 2.5309 14.1093 2.1915 14.1093 2.1915C14.1907 2.66234 14.5976 2.88612 14.6024 2.88876C14.6024 2.88876 15.015 3.18173 15.6835 3.18173V3.18075H22.2538L21.0673 2.98935C20.1842 2.38185 17.4327 0.532316 16.6434 0.532316ZM30.5038 0.532316C29.7153 0.532364 26.9634 2.38184 26.08 2.98935L24.8934 3.18173H31.4637C32.133 3.18173 32.5448 2.88876 32.5448 2.88876C32.5482 2.88691 32.9563 2.66359 33.038 2.19247C33.0357 2.20307 32.9623 2.5355 32.5536 2.7579C32.5632 2.49562 32.5452 1.88616 32.2186 1.37509C32.2183 1.37446 31.7722 0.532316 30.5038 0.532316Z" fill="white"/>
<path d="M23.5746 4.93493C23.73 4.61595 24.6566 4.32859 24.6566 3.64318C24.6566 3.28523 24.3673 2.99402 24.0108 2.99402C23.8431 2.99402 23.6889 3.0592 23.5742 3.16682C23.4585 3.0592 23.3046 2.99402 23.1369 2.99402C22.78 2.99402 22.4908 3.28523 22.4908 3.64318C22.4916 4.32859 23.4181 4.61595 23.5746 4.93493Z" fill="white"/>
</svg>
